<svg width="64" height="64" viewBox="0 0 64 64" fill="none" xmlns="http://www.w3.org/2000/svg">
<path d="M48 0C47.7166 0 20.5714 0 20.5714 0C15.7348 0 11.4286 3.88203 11.4286 8.00005L8.7863 8.05403C3.952 8.05403 0 11.882 0 16V56C0 60.1181 4.3063 64 9.1429 64H43.4286C48.2651 64 52.5714 60.1181 52.5714 56H54.8571C59.6937 56 64 52.1181 64 48.0001V16.048L48 0ZM43.4286 60.0001H9.1429C6.7429 60.0001 4.5715 58.0382 4.5715 56V16C4.5715 13.962 6.5258 12.066 8.9258 12.066L11.4286 12V48.0001C11.4286 52.1181 15.7348 56 20.5714 56H48C48 58.0381 45.8285 60.0001 43.4286 60.0001ZM59.4286 48.0001C59.4286 50.038 57.2571 52 54.8571 52H20.5714C18.1714 52 16 50.0381 16 48.0001V8.00005C16 5.96208 18.1714 4.00007 20.5714 4.00007H43.4286C43.3919 8.60607 43.4286 12.0501 43.4286 12.0501C43.4286 16.2061 47.7028 20.0001 52.5714 20.0001C52.5714 20.0001 54.9989 20.0001 59.4286 20.0001V48.0001ZM52.5714 16C50.1372 16 48 12.13 48 10.054C48 10.054 48 7.94999 48 4.06202V4.05799L59.4286 16H52.5714ZM48 28.0361H27.4286C26.1669 28.0361 25.1429 28.9301 25.1429 30.0341C25.1429 31.138 26.1669 32.032 27.4286 32.032H48C49.2617 32.032 50.2857 31.1379 50.2857 30.0341C50.2857 28.9301 49.2617 28.0361 48 28.0361ZM48 38.026H27.4286C26.1669 38.026 25.1429 38.92 25.1429 40.0239C25.1429 41.128 26.1669 42.022 27.4286 42.022H48C49.2617 42.022 50.2857 41.128 50.2857 40.0239C50.2857 38.92 49.2617 38.026 48 38.026Z" fill="#AB9DAF"/>
</svg>
